<svg width="120" height="87" viewBox="0 0 120 87" fill="none" xmlns="http://www.w3.org/2000/svg">
<rect width="120" height="87" fill="#E5E5E5"/>
<rect width="220" height="220" transform="translate(-50 -66)" fill="white"/>
<g clip-path="url(#clip0_0_1)">
<rect width="120" height="120" transform="translate(0 -16)" fill="white"/>
<mask id="mask0_0_1" style="mask-type:alpha" maskUnits="userSpaceOnUse" x="0" y="0" width="121" height="87">
<path d="M64.741 1.48365V86.1608H51.0466V78.2865C48.6881 81.1775 45.759 83.3458 42.2594 84.7913C38.8358 86.2369 35.0318 86.9596 30.8474 86.9596C24.9892 86.9596 19.7016 85.6663 14.9847 83.0795C10.3438 80.4928 6.69192 76.841 4.02912 72.124C1.36631 67.331 0.0349121 61.8532 0.0349121 55.6907C0.0349121 49.5282 1.36631 44.0885 4.02912 39.3715C6.69192 34.6546 10.3438 31.0027 14.9847 28.416C19.7016 25.8293 24.9892 24.5359 30.8474 24.5359C34.8796 24.5359 38.5695 25.2206 41.917 26.5901C45.2645 27.9595 48.1175 30.0137 50.476 32.7526V1.48365H64.741ZM32.5592 74.7488C35.9828 74.7488 39.064 73.988 41.8029 72.4664C44.5418 70.8687 46.71 68.6243 48.3077 65.7333C49.9054 62.8422 50.7043 59.4947 50.7043 55.6907C50.7043 51.8867 49.9054 48.5392 48.3077 45.6481C46.71 42.7571 44.5418 40.5508 41.8029 39.0292C39.064 37.4315 35.9828 36.6327 32.5592 36.6327C29.1355 36.6327 26.0543 37.4315 23.3154 39.0292C20.5765 40.5508 18.4083 42.7571 16.8106 45.6481C15.2129 48.5392 14.414 51.8867 14.414 55.6907C14.414 59.4947 15.2129 62.8422 16.8106 65.7333C18.4083 68.6243 20.5765 70.8687 23.3154 72.4664C26.0543 73.988 29.1355 74.7488 32.5592 74.7488Z" fill="black"/>
<path d="M108.166 12.2109C102.156 12.2109 99.1509 15.4824 99.1509 22.0253V25.6771H115.927V37.0891H99.6074V86.1608H85.3424V37.0891H75.2998V25.6771H85.3424V21.797C85.3424 15.2541 87.2444 10.1187 91.0484 6.39082C94.8524 2.58681 100.216 0.684814 107.139 0.684814C112.617 0.684814 116.916 1.78798 120.035 3.9943L116.041 14.7216C113.606 13.0478 110.981 12.2109 108.166 12.2109Z" fill="black"/>
</mask>
<g mask="url(#mask0_0_1)">
<rect y="-16" width="120" height="120" fill="url(#paint0_linear_0_1)"/>
</g>
</g>
<defs>
<linearGradient id="paint0_linear_0_1" x1="120" y1="-16" x2="3.57628e-06" y2="104" gradientUnits="userSpaceOnUse">
<stop stop-color="#61B3C9"/>
<stop offset="1" stop-color="#074D88"/>
</linearGradient>
<clipPath id="clip0_0_1">
<rect width="120" height="120" fill="white" transform="translate(0 -16)"/>
</clipPath>
</defs>
</svg>
