<svg width="50" height="50" viewBox="0 0 70 70" fill="none" xmlns="http://www.w3.org/2000/svg">
<path d="M19.6875 8.75C16.0891 8.75 13.125 11.7141 13.125 15.3125V54.6875C13.125 58.2859 16.0891 61.25 19.6875 61.25H56.875V8.75H19.6875ZM19.6875 13.125H52.5V48.125H19.6875C18.94 48.1343 18.1998 48.2735 17.5 48.5363V15.3125C17.5 14.0744 18.4494 13.125 19.6875 13.125ZM24.0625 19.6875V24.0625H48.125V19.6875H24.0625ZM19.6875 52.5H52.5V56.875H19.6875C18.4494 56.875 17.5 55.9256 17.5 54.6875C17.5 53.4494 18.4494 52.5 19.6875 52.5Z" fill="black"/>
</svg>
