<svg width="50" height="50" viewBox="0 0 70 70" fill="none" xmlns="http://www.w3.org/2000/svg">
<path d="M24.0625 8.75C20.4641 8.75 17.5 11.7141 17.5 15.3125C17.5 18.1409 19.3462 20.5516 21.875 21.4659V48.5341C19.3462 49.4484 17.5 51.8591 17.5 54.6875C17.5 58.2859 20.4641 61.25 24.0625 61.25C27.6609 61.25 30.625 58.2859 30.625 54.6875C30.625 51.9094 28.84 49.56 26.3856 48.6041C26.7028 45.9134 27.7462 44.5878 29.3956 43.4766C31.36 42.1531 34.3766 41.3656 37.6644 40.6044C40.9566 39.8453 44.485 39.0578 47.4425 36.9819C50.0391 35.1619 52.0034 32.1803 52.43 28.0284C54.9981 27.1294 56.875 24.7188 56.875 21.875C56.875 18.2766 53.9109 15.3125 50.3125 15.3125C46.7141 15.3125 43.75 18.2766 43.75 21.875C43.75 24.6684 45.57 27.02 48.0572 27.9584C47.7575 30.8306 46.6462 32.2569 44.9794 33.4272C43.015 34.8053 39.9809 35.6147 36.7106 36.3672C33.4359 37.1197 29.89 37.7847 26.9325 39.7862C26.6941 39.9481 26.4731 40.1516 26.25 40.3331V21.4659C28.7788 20.5516 30.625 18.1409 30.625 15.3125C30.625 11.7141 27.6609 8.75 24.0625 8.75ZM24.0625 13.125C25.2941 13.125 26.25 14.0831 26.25 15.3125C26.25 16.5441 25.2919 17.5 24.0625 17.5C22.8309 17.5 21.875 16.5419 21.875 15.3125C21.875 14.0809 22.8331 13.125 24.0625 13.125ZM50.3125 19.6875C51.5441 19.6875 52.5 20.6456 52.5 21.875C52.5 23.1066 51.5419 24.0625 50.3125 24.0625C49.0809 24.0625 48.125 23.1044 48.125 21.875C48.125 20.6434 49.0831 19.6875 50.3125 19.6875ZM24.0625 52.5C25.2941 52.5 26.25 53.4581 26.25 54.6875C26.25 55.9191 25.2919 56.875 24.0625 56.875C22.8309 56.875 21.875 55.9169 21.875 54.6875C21.875 53.4559 22.8331 52.5 24.0625 52.5Z" fill="black"/>
</svg>
