<svg width="50" height="50" viewBox="0 0 70 70" fill="none" xmlns="http://www.w3.org/2000/svg">
<path d="M35 8.75C24.1566 8.75 15.3125 17.5941 15.3125 28.4375C15.3125 32.6331 17.1587 36.9819 19.6875 40.88C21.5687 43.7762 23.8153 46.4406 26.25 48.4663V54.6875C26.25 57.0806 28.2319 59.0625 30.625 59.0625L32.8125 61.25H37.1875L39.375 59.0625C41.7681 59.0625 43.75 57.0806 43.75 54.6875V48.4663C46.1847 46.4406 48.4313 43.7762 50.3125 40.88C52.8413 36.9819 54.6875 32.6331 54.6875 28.4375C54.6875 17.5941 45.8434 8.75 35 8.75ZM35 13.125C43.4853 13.125 50.3125 19.9522 50.3125 28.4375C50.3125 31.3009 48.9016 35.0766 46.69 38.4869C44.7147 41.5275 42.1181 44.2378 39.7162 45.9375H30.2837C27.8819 44.2378 25.2853 41.5275 23.31 38.4869C21.0984 35.0766 19.6875 31.3009 19.6875 28.4375C19.6875 19.9522 26.5147 13.125 35 13.125ZM31.1719 50.3125H38.8281C38.9988 50.4328 39.1781 50.5181 39.375 50.5859V54.6875H30.625V50.5859C30.8192 50.5209 31.0033 50.4288 31.1719 50.3125Z" fill="black"/>
</svg>
