<svg width="50" height="50" viewBox="0 0 70 70" fill="none" xmlns="http://www.w3.org/2000/svg">
<path d="M35 8.75C24.0625 8.75 15.3125 17.5 15.3125 28.4375C14.6563 28.4375 14 28.875 13.5625 29.3125C13.125 29.9688 12.9063 30.625 13.3438 31.2812L15.5313 37.8437C15.75 38.7187 16.625 39.375 17.5 39.375H18.5981C19.0159 40.005 19.4731 40.6022 19.9609 41.1775C20.6347 42.2188 21.4353 43.1681 22.3366 44.0103C20.1397 45.8559 18.3727 48.1593 17.1594 50.7594C15.9461 53.3594 15.3157 56.1933 15.3125 59.0625H19.6875C19.6875 54.0969 22.05 49.5119 26.0838 46.5784C28.1805 47.5971 30.4814 48.126 32.8125 48.125H37.1875C39.4899 48.1259 41.7632 47.6101 43.8397 46.6156C47.8297 49.4353 50.3125 54.1538 50.3125 59.0625H54.6875C54.6875 56.195 54.0518 53.3631 52.8263 50.7706C51.6008 48.1781 49.8159 45.8895 47.6 44.0694C48.5275 43.2119 49.35 42.245 50.0391 41.1775C50.5269 40.6022 50.9841 40.005 51.4019 39.375H52.5C53.375 39.375 54.25 38.7187 54.4688 37.8437L56.6563 31.2812C57.0938 30.625 56.875 29.9688 56.4375 29.3125C56 28.875 55.3438 28.4375 54.6875 28.4375C54.6875 17.5 45.9375 8.75 35 8.75ZM35 13.125C38.6409 13.1034 42.1685 14.3902 44.9404 16.751C47.7124 19.1118 49.5442 22.3896 50.1025 25.9875C49.0844 24.6989 47.7863 23.659 46.3067 22.9465C44.8271 22.234 43.2047 21.8676 41.5625 21.875H28.4375C26.7953 21.8676 25.1729 22.234 23.6933 22.9465C22.2137 23.659 20.9156 24.6989 19.8975 25.9875C20.4558 22.3896 22.2877 19.1118 25.0596 16.751C27.8315 14.3902 31.3591 13.1034 35 13.125ZM28.4375 26.25H41.5625C45.2813 26.25 48.125 29.0938 48.125 32.8125C48.125 34.3766 47.8056 35.8531 47.2369 37.1875H37.1875C35.875 37.1875 35 38.2812 35 39.375C35 40.6875 36.0938 41.5625 37.1875 41.5625H42.9188C40.5274 42.9985 37.7895 43.7549 35 43.75C30.4063 43.75 26.3309 41.7725 23.5375 38.6225C22.4502 36.8797 21.8742 34.8666 21.875 32.8125C21.875 29.0938 24.7188 26.25 28.4375 26.25Z" fill="black"/>
</svg>
